<?xml version="1.0"?>
<svg width="24" height="24" xmlns="http://www.w3.org/2000/svg" xmlns:svg="http://www.w3.org/2000/svg">
 <g class="layer">
  <title>Layer 1</title>
  <path d="m23,12c0,6.08 -4.92,11 -11,11c-6.08,0 -11,-4.92 -11,-11c0,-6.08 4.92,-11 11,-11c6.08,0 11,4.92 11,11zm-19.99,0c0,4.97 4.02,8.99 8.99,8.99c4.97,0 8.99,-4.02 8.99,-8.99c0,-4.97 -4.02,-8.99 -8.99,-8.99c-4.97,0 -8.99,4.02 -8.99,8.99z" fill="#cc4711" id="svg_1"/>
  <path d="m12,5c-0.55,0 -1,0.45 -1,1l0,6.47c0,0 0,0.26 0.13,0.45c0.08,0.17 0.21,0.31 0.39,0.41l4.62,2.67c0.48,0.28 1.09,0.11 1.36,-0.36c0.28,-0.48 0.12,-1.09 -0.36,-1.37l-4.14,-2.39l0,-5.88c0,-0.55 -0.45,-1 -1,-1z" fill="#cc4711" id="svg_2"/>
 </g>
</svg>